<?xml version="1.0" encoding="utf-8"?>
<svg viewBox="0 0 500 500" xmlns="http://www.w3.org/2000/svg">
  <defs>
    <radialGradient gradientUnits="userSpaceOnUse" cx="-3612.173" cy="2773.005" r="3729.994" id="gradient-0" gradientTransform="matrix(0.137809, 0.290003, -1.176615, 0.559123, 6753.03566, 735.610225)" spreadMethod="reflect">
      <stop offset="0" style="stop-color: rgba(252, 211, 78, 1)"/>
      <stop offset="1" style="stop-color: rgb(255, 245, 197);"/>
    </radialGradient>
  </defs>
  <g transform="matrix(0.060597, 0, 0, -0.060597, 20.474614, 464.189218)" fill="#000000" stroke="none" style="">
    <title>Icon</title>
    <path d="M 55.158 5215.229 L 2649.758 5215.229 C 2537.492 5396.195 2472.109 5609.324 2472.109 5835.969 C 2472.109 6163.279 2608.881 6462.056 2825.493 6677.166 C 3043.606 6890.741 3346.376 7025.434 3678.208 7025.434 C 4010.04 7025.434 4312.86 6890.691 4530.956 6677.133 C 4639.493 6569.685 4728.359 6440.751 4789.484 6299.061 C 4819.832 6228.117 4843.678 6152.866 4859.785 6075.7 C 4867.788 6037.134 4873.944 5997.446 4878.086 5957.592 C 4880.132 5937.674 4881.7 5917.31 4882.756 5897.127 C 4883.251 5887.044 4883.647 5876.763 4883.928 5866.631 C 4884.175 5856.383 4884.307 5836.365 4884.307 5836.365 L 4884.307 5836.051 C 4883.796 5609.275 4818.38 5396.244 4706.229 5215.229 L 7515.147 5215.229 L 3725.471 -1.448 L 55.158 5215.229 Z M 3650.467 6303.649 C 3310.368 6303.649 3034.678 6027.959 3034.678 5687.859 C 3034.678 5497.982 3120.606 5328.188 3255.695 5215.229 L 4045.239 5215.229 C 4180.329 5328.188 4266.257 5497.982 4266.257 5687.859 C 4266.257 6027.959 3990.567 6303.649 3650.467 6303.649 Z" style="stroke: rgb(0, 0, 0); paint-order: fill; fill-rule: evenodd; fill: url(#gradient-0);"/>
    <path d="M 3558 7058 C 3555 7051 3522 7040 3484 7033 C 3368 7013 3292 6995 3284 6988 C 3280 6983 3266 6980 3253 6980 C 3241 6980 3230 6976 3230 6971 C 3230 6966 3217 6959 3200 6955 C 3184 6951 3170 6944 3170 6939 C 3170 6934 3161 6930 3151 6930 C 3140 6930 3125 6924 3118 6918 C 3098 6899 3068 6880 3048 6874 C 3038 6870 3030 6864 3030 6860 C 3030 6856 3019 6849 3005 6846 C 2991 6842 2980 6835 2980 6830 C 2980 6824 2974 6820 2967 6820 C 2951 6820 2824 6697 2755 6616 C 2728 6583 2686 6535 2663 6510 C 2639 6484 2620 6458 2620 6453 C 2620 6447 2610 6428 2597 6409 C 2571 6370 2540 6293 2540 6267 C 2540 6258 2536 6250 2531 6250 C 2526 6250 2520 6231 2516 6208 C 2512 6185 2506 6161 2502 6155 C 2486 6134 2470 6071 2464 6016 C 2461 5984 2455 5947 2449 5934 C 2438 5903 2437 5700 2448 5700 C 2458 5700 2482 5542 2474 5529 C 2471 5524 2474 5520 2479 5520 C 2485 5520 2490 5512 2490 5503 C 2490 5488 2501 5451 2530 5375 C 2547 5328 2594 5240 2602 5240 C 2606 5240 2610 5234 2610 5226 C 2610 5204 2522 5200 1903 5202 C 1421 5202 1320 5205 1320 5216 C 1320 5224 1310 5232 1298 5235 C 1285 5238 990 5241 642 5243 C -64 5245 -26 5250 51 5176 C 73 5154 94 5123 97 5108 C 100 5092 111 5075 121 5069 C 132 5064 140 5055 140 5050 C 140 5044 149 5031 160 5020 C 172 5008 178 4994 174 4988 C 170 4981 171 4980 179 4984 C 186 4989 196 4979 205 4957 C 213 4938 226 4920 235 4917 C 243 4913 250 4904 250 4895 C 250 4887 255 4880 261 4880 C 266 4880 277 4864 285 4846 C 293 4827 306 4807 313 4803 C 320 4799 331 4783 337 4768 C 344 4752 354 4740 360 4740 C 365 4740 370 4735 370 4729 C 370 4717 509 4527 522 4522 C 526 4520 530 4514 530 4509 C 530 4501 581 4429 600 4410 C 603 4407 621 4383 640 4355 C 659 4328 678 4301 683 4295 C 693 4283 1020 3828 1052 3782 C 1065 3764 1080 3743 1085 3737 C 1091 3730 1111 3702 1129 3675 C 1148 3647 1167 3623 1170 3620 C 1186 3606 1210 3558 1210 3540 C 1210 3529 1214 3520 1218 3520 C 1222 3520 1270 3454 1325 3374 C 1380 3293 1430 3223 1435 3216 C 1441 3210 1468 3171 1495 3130 C 1523 3089 1549 3051 1553 3045 C 1558 3040 1582 3005 1608 2968 C 1634 2932 1708 2829 1773 2740 C 1837 2652 1890 2575 1890 2570 C 1890 2566 1893 2560 1898 2558 C 1902 2557 1928 2521 1955 2480 C 1983 2439 2007 2403 2010 2400 C 2013 2397 2038 2361 2065 2320 C 2093 2279 2118 2241 2123 2235 C 2155 2192 2240 2069 2240 2065 C 2240 2062 2271 2018 2308 1967 C 2371 1881 2457 1759 2590 1564 C 2620 1519 2686 1423 2735 1351 C 2785 1279 2830 1212 2835 1203 C 2841 1194 2849 1181 2853 1176 C 2858 1170 2888 1127 2920 1080 C 2952 1033 2983 990 2988 984 C 2993 979 3002 964 3009 953 C 3015 941 3026 926 3032 918 C 3039 911 3061 882 3080 855 C 3099 828 3121 798 3130 790 C 3138 781 3174 732 3210 681 C 3246 630 3286 574 3300 555 C 3314 537 3332 512 3340 500 C 3348 488 3366 463 3380 445 C 3394 427 3412 402 3420 390 C 3428 378 3491 291 3559 197 C 3626 103 3684 20 3687 13 C 3692 -1 3770 -6 3770 8 C 3770 12 3788 35 3810 59 C 3832 83 3852 111 3855 121 C 3859 132 3865 140 3870 140 C 3875 140 3886 155 3895 174 C 3904 193 3918 211 3926 214 C 3934 217 3940 225 3940 232 C 3940 239 3949 251 3960 258 C 3971 265 3980 277 3980 285 C 3980 293 3989 308 4000 317 C 4011 327 4020 340 4020 346 C 4020 353 4031 367 4045 378 C 4058 389 4067 399 4065 402 C 4058 409 4140 515 4150 513 C 4155 511 4157 517 4154 525 C 4151 533 4157 544 4169 552 C 4181 559 4190 570 4190 577 C 4190 591 4257 683 4271 688 C 4276 690 4280 696 4280 701 C 4280 706 4307 747 4340 793 C 4374 838 4432 918 4470 970 C 4508 1022 4543 1070 4547 1075 C 4608 1149 4620 1167 4620 1181 C 4620 1190 4636 1215 4655 1236 C 4674 1257 4690 1278 4690 1282 C 4690 1287 4699 1301 4711 1313 C 4722 1325 4736 1344 4741 1355 C 4746 1366 4770 1402 4795 1435 C 4820 1468 4843 1502 4847 1510 C 4851 1518 4862 1534 4872 1544 C 4882 1555 4902 1582 4917 1604 C 4932 1627 4955 1659 4967 1675 C 4980 1692 4994 1710 4998 1715 C 5002 1721 5021 1748 5040 1775 C 5059 1803 5077 1827 5080 1830 C 5100 1850 5150 1921 5150 1929 C 5150 1935 5153 1940 5158 1940 C 5162 1940 5176 1958 5190 1980 C 5204 2002 5218 2020 5222 2020 C 5227 2020 5230 2026 5230 2033 C 5230 2041 5241 2057 5255 2070 C 5269 2083 5280 2099 5280 2106 C 5280 2113 5286 2123 5294 2127 C 5301 2131 5313 2146 5320 2160 C 5327 2174 5339 2192 5347 2200 C 5375 2231 5410 2275 5410 2281 C 5410 2286 5424 2304 5460 2348 C 5466 2354 5468 2360 5464 2360 C 5460 2360 5465 2369 5476 2380 C 5506 2410 5517 2424 5534 2458 C 5543 2476 5554 2490 5559 2490 C 5564 2490 5573 2502 5578 2518 C 5583 2533 5604 2562 5624 2583 C 5643 2604 5662 2630 5665 2641 C 5669 2651 5675 2660 5681 2660 C 5686 2660 5696 2676 5704 2695 C 5712 2714 5723 2730 5728 2730 C 5734 2730 5741 2741 5744 2754 C 5747 2767 5759 2780 5770 2783 C 5783 2786 5788 2794 5784 2803 C 5781 2813 5788 2825 5804 2835 C 5818 2845 5830 2858 5830 2866 C 5830 2873 5839 2884 5850 2890 C 5861 2896 5870 2909 5870 2920 C 5870 2931 5879 2944 5890 2950 C 5901 2956 5910 2970 5910 2980 C 5910 2991 5919 3005 5930 3012 C 5941 3019 5950 3030 5950 3037 C 5950 3044 5959 3055 5970 3062 C 5981 3069 5990 3083 5990 3092 C 5990 3102 5999 3115 6010 3122 C 6021 3129 6030 3140 6030 3147 C 6030 3154 6039 3164 6050 3170 C 6061 3176 6070 3190 6070 3200 C 6070 3211 6079 3225 6090 3232 C 6101 3239 6110 3250 6110 3257 C 6110 3264 6118 3274 6129 3279 C 6139 3285 6150 3303 6153 3320 C 6157 3338 6166 3350 6175 3350 C 6183 3350 6190 3358 6190 3368 C 6190 3378 6210 3408 6235 3433 C 6260 3459 6280 3487 6280 3495 C 6280 3503 6289 3518 6300 3527 C 6311 3537 6320 3550 6320 3556 C 6320 3562 6329 3570 6340 3573 C 6351 3576 6360 3587 6360 3598 C 6360 3608 6369 3625 6380 3635 C 6391 3645 6400 3659 6400 3667 C 6400 3674 6406 3680 6414 3680 C 6422 3680 6434 3696 6440 3715 C 6446 3734 6458 3750 6466 3750 C 6474 3750 6480 3758 6480 3768 C 6480 3777 6498 3804 6519 3828 C 6540 3851 6561 3881 6564 3895 C 6568 3909 6575 3920 6580 3920 C 6586 3920 6595 3931 6600 3945 C 6605 3959 6616 3970 6625 3970 C 6633 3970 6640 3979 6640 3989 C 6640 4010 6697 4070 6716 4070 C 6723 4070 6730 4077 6734 4085 C 6737 4093 6746 4100 6754 4100 C 6762 4100 6773 4114 6779 4130 C 6784 4147 6793 4160 6799 4160 C 6804 4160 6812 4170 6816 4183 C 6819 4195 6830 4212 6839 4221 C 6848 4230 6862 4247 6870 4260 C 6878 4272 6890 4288 6896 4294 C 6901 4300 6915 4320 6925 4338 C 6936 4355 6948 4370 6952 4370 C 6956 4370 6960 4374 6960 4380 C 6960 4385 7004 4450 7058 4524 C 7111 4598 7162 4668 7170 4680 C 7185 4702 7231 4765 7248 4785 C 7252 4791 7265 4810 7275 4828 C 7286 4845 7298 4860 7302 4860 C 7306 4860 7310 4867 7310 4875 C 7310 4882 7316 4893 7323 4897 C 7331 4901 7345 4920 7355 4938 C 7366 4955 7378 4970 7382 4970 C 7386 4970 7390 4976 7390 4983 C 7390 4991 7399 5005 7410 5015 C 7421 5025 7430 5039 7430 5046 C 7430 5053 7433 5060 7438 5062 C 7442 5064 7467 5094 7494 5130 C 7520 5166 7548 5198 7555 5202 C 7574 5213 7562 5252 7541 5246 C 7505 5236 4750 5228 4750 5238 C 4750 5243 4763 5273 4779 5303 C 4795 5333 4811 5373 4815 5391 C 4819 5409 4826 5431 4831 5440 C 4835 5448 4849 5489 4860 5530 C 4872 5571 4885 5614 4890 5625 C 4900 5648 4896 5987 4885 6040 C 4881 6059 4874 6083 4869 6092 C 4864 6102 4862 6121 4866 6135 C 4870 6150 4868 6160 4861 6160 C 4855 6160 4850 6170 4850 6183 C 4850 6196 4847 6210 4843 6214 C 4838 6218 4835 6225 4834 6228 C 4833 6239 4820 6269 4789 6336 C 4773 6370 4760 6402 4760 6406 C 4760 6411 4749 6428 4735 6444 C 4721 6460 4710 6477 4710 6481 C 4710 6485 4680 6522 4643 6562 C 4572 6639 4465 6759 4431 6798 C 4420 6811 4408 6821 4403 6820 C 4392 6819 4290 6883 4290 6893 C 4290 6897 4283 6900 4274 6900 C 4256 6900 4197 6931 4192 6943 C 4190 6947 4184 6950 4178 6950 C 4173 6950 4154 6957 4137 6964 C 4119 6972 4078 6986 4046 6994 C 4013 7002 3984 7013 3981 7017 C 3978 7022 3962 7026 3945 7027 C 3870 7030 3746 7050 3737 7059 C 3723 7073 3650 7073 3650 7060 C 3650 7055 3634 7050 3615 7050 C 3596 7050 3580 7055 3580 7060 C 3580 7074 3562 7072 3558 7058 Z M 3874 7001 C 3880 6997 3906 6990 3932 6987 C 4045 6972 4229 6892 4360 6800 C 4594 6637 4774 6361 4837 6070 C 4858 5974 4861 5691 4842 5605 C 4811 5465 4728 5253 4697 5233 C 4685 5226 4090 5222 4090 5229 C 4090 5230 4111 5255 4136 5283 C 4202 5357 4256 5466 4277 5573 C 4281 5594 4287 5599 4300 5595 C 4324 5587 4331 5600 4336 5663 C 4338 5692 4344 5735 4348 5760 L 4356 5805 L 4365 5745 C 4378 5647 4357 5516 4312 5418 C 4291 5372 4266 5329 4257 5321 C 4237 5305 4234 5270 4253 5270 C 4273 5270 4410 5452 4424 5498 C 4432 5521 4446 5525 4468 5512 C 4477 5505 4475 5499 4459 5484 C 4437 5465 4400 5389 4400 5364 C 4400 5349 4494 5250 4509 5250 C 4534 5250 4610 5405 4610 5455 C 4610 5467 4617 5485 4625 5496 C 4666 5550 4653 5428 4605 5313 C 4590 5278 4592 5260 4611 5260 C 4621 5260 4700 5419 4700 5439 C 4700 5445 4704 5458 4709 5468 C 4725 5497 4748 5580 4766 5675 C 4786 5778 4789 6065 4771 6083 C 4765 6089 4760 6104 4760 6117 C 4760 6202 4644 6417 4538 6530 C 4491 6580 4427 6630 4411 6630 C 4390 6630 4401 6612 4438 6587 C 4548 6510 4677 6297 4707 6145 C 4724 6056 4724 5841 4707 5728 C 4694 5643 4673 5594 4644 5583 C 4624 5575 4614 5588 4628 5602 C 4643 5617 4644 5770 4629 5842 C 4615 5914 4564 6061 4538 6107 C 4488 6197 4425 6281 4387 6313 C 4364 6332 4323 6368 4297 6393 C 4193 6491 3985 6587 3811 6617 C 3732 6630 3703 6631 3647 6622 C 3610 6615 3566 6610 3550 6610 C 3527 6610 3520 6605 3520 6591 C 3520 6570 3592 6475 3615 6466 C 3626 6462 3629 6453 3624 6435 C 3618 6411 3619 6410 3669 6410 C 3719 6410 3720 6409 3720 6380 C 3720 6355 3724 6350 3745 6350 C 3759 6350 3770 6346 3770 6341 C 3770 6335 3724 6329 3668 6327 C 3549 6322 3488 6310 3412 6275 C 3241 6196 3118 6068 3050 5898 C 3038 5866 3025 5840 3022 5840 C 3011 5840 2980 5874 2980 5886 C 2980 5908 2933 5933 2900 5928 C 2876 5924 2870 5927 2870 5941 C 2870 5961 2890 6012 2921 6072 C 2944 6116 2944 6120 2926 6120 C 2911 6120 2887 6088 2857 6028 C 2832 5978 2820 5980 2820 6034 C 2820 6082 2791 6130 2761 6130 C 2741 6130 2727 6106 2707 6040 C 2647 5844 2636 5763 2650 5611 C 2658 5533 2668 5475 2678 5458 C 2698 5424 2715 5421 2705 5453 C 2694 5484 2687 5665 2694 5706 C 2707 5771 2717 5740 2723 5623 C 2729 5497 2742 5417 2766 5360 C 2792 5300 2823 5245 2838 5234 C 2849 5226 2834 5222 2774 5217 C 2731 5213 2686 5209 2675 5207 C 2659 5206 2646 5222 2613 5285 C 2589 5329 2566 5379 2561 5395 C 2549 5432 2530 5488 2519 5515 C 2489 5591 2475 5930 2498 6040 C 2564 6354 2686 6561 2920 6754 C 3045 6858 3272 6965 3410 6986 C 3435 6990 3460 6996 3465 7001 C 3471 7005 3498 7011 3525 7013 C 3600 7020 3862 7011 3874 7001 Z M 3859 6260 C 4019 6197 4109 6118 4182 5975 C 4233 5877 4235 5864 4234 5690 C 4234 5546 4231 5518 4212 5471 C 4181 5392 4132 5316 4080 5266 L 4035 5221 L 3647 5214 L 3259 5207 L 3223 5241 C 3169 5292 3095 5411 3069 5487 C 3038 5578 3035 5766 3064 5850 C 3100 5956 3152 6043 3222 6112 C 3314 6202 3402 6250 3545 6284 C 3556 6287 3619 6287 3685 6285 C 3778 6283 3817 6277 3859 6260 Z M 7433 5207 C 7464 5208 7490 5205 7490 5200 C 7490 5195 7463 5154 7430 5108 C 7396 5062 7354 5003 7335 4975 C 7316 4948 7288 4907 7271 4885 C 7255 4863 7226 4823 7207 4795 C 7161 4730 6961 4452 6868 4326 C 6828 4271 6788 4215 6778 4201 C 6769 4187 6751 4162 6738 4146 C 6717 4122 6712 4120 6699 4131 C 6692 4139 6641 4183 6588 4229 C 6534 4275 6490 4319 6490 4325 C 6490 4332 6518 4373 6553 4417 C 6587 4460 6624 4507 6635 4521 C 6646 4536 6717 4624 6793 4718 C 6868 4812 6930 4892 6930 4897 C 6930 4902 6866 4907 6788 4909 C 6607 4911 6198 4929 6193 4934 C 6186 4941 6171 5203 6177 5213 C 6181 5219 6384 5220 6779 5214 C 7107 5209 7401 5206 7433 5207 Z M 1292 5193 C 1294 5188 1294 5121 1292 5043 L 1288 4900 L 959 4900 C 778 4900 630 4897 631 4893 C 631 4888 650 4859 673 4827 C 867 4561 1060 4287 1060 4280 C 1060 4275 1042 4256 1020 4238 C 997 4220 956 4184 927 4158 C 875 4111 850 4099 850 4122 C 850 4129 839 4145 826 4159 C 814 4174 778 4221 748 4265 C 718 4309 667 4382 634 4427 C 579 4504 425 4721 331 4855 C 308 4888 273 4938 252 4966 C 171 5079 95 5185 92 5192 C 87 5202 1288 5202 1292 5193 Z M 6098 5188 C 6103 5181 6108 5106 6109 5020 C 6110 4935 6114 4862 6119 4857 C 6123 4853 6276 4850 6458 4849 C 6721 4849 6790 4847 6790 4836 C 6790 4817 6756 4775 6520 4499 C 6355 4306 6364 4319 6387 4301 C 6398 4292 6442 4258 6485 4225 C 6597 4138 6645 4099 6648 4089 C 6650 4084 6627 4047 6597 4007 C 6483 3855 6297 3595 6125 3350 C 5905 3035 5872 2990 5857 2985 C 5850 2983 5703 2984 5530 2988 L 5215 2995 L 5246 3025 C 5263 3042 5323 3109 5380 3175 C 5485 3296 5537 3354 5685 3515 C 5729 3563 5765 3608 5765 3615 C 5765 3622 5694 3694 5608 3775 C 5521 3856 5450 3927 5450 3933 C 5450 3940 5465 3961 5483 3980 C 5501 3999 5529 4031 5545 4051 C 5719 4261 5781 4333 5825 4380 C 5854 4410 5885 4447 5896 4461 C 5906 4475 5934 4512 5958 4543 C 5981 4574 6000 4600 6000 4602 C 6000 4604 5722 4605 5383 4605 L 4765 4605 L 4762 4897 L 4760 5190 L 5197 5193 C 5438 5194 5737 5196 5861 5198 C 6033 5199 6090 5197 6098 5188 Z M 4183 4960 C 4187 4838 4187 4708 4184 4670 L 4177 4600 L 3910 4600 C 3763 4600 3582 4597 3507 4593 L 3370 4587 L 3369 4716 C 3369 4787 3365 4917 3361 5005 C 3357 5093 3355 5168 3357 5173 C 3359 5177 3545 5180 3769 5180 L 4177 5180 L 4183 4960 Z M 4243 4933 C 4247 4796 4250 4648 4250 4603 L 4250 4520 L 4093 4520 C 4006 4520 3910 4523 3880 4527 L 3825 4534 L 3920 4546 C 3972 4553 4059 4559 4112 4559 C 4202 4560 4209 4561 4216 4582 C 4219 4594 4219 4733 4215 4892 C 4209 5140 4210 5180 4222 5180 C 4234 5180 4238 5139 4243 4933 Z M 4661 5128 C 4662 5099 4666 4945 4669 4785 L 4675 4495 L 5212 4492 L 5750 4490 L 5722 4452 C 5707 4431 5663 4376 5623 4329 C 5509 4195 5419 4089 5360 4017 C 5305 3951 5286 3941 5250 3960 C 5240 3965 5166 3975 5085 3981 C 4866 3997 4748 4040 4603 4155 C 4557 4191 4517 4220 4514 4220 C 4511 4220 4496 4228 4482 4239 C 4439 4269 4261 4357 4188 4385 C 4047 4437 3992 4445 3750 4444 C 3514 4444 3531 4446 3325 4390 C 3250 4370 3073 4264 2950 4166 C 2770 4022 2635 3967 2435 3955 C 2236 3943 2154 3909 2113 3821 C 2089 3772 2092 3675 2119 3620 C 2145 3565 2145 3567 2115 3522 C 2096 3494 2090 3472 2090 3432 C 2090 3403 2095 3370 2100 3359 C 2117 3328 2103 3337 2058 3387 C 2034 3413 1976 3476 1928 3528 C 1879 3580 1840 3627 1840 3634 C 1840 3641 1866 3671 1899 3701 C 1931 3731 2004 3798 2061 3851 C 2118 3904 2181 3961 2199 3977 L 2234 4007 L 2209 4036 C 2175 4078 1990 4287 1893 4394 C 1848 4444 1814 4487 1817 4490 C 1819 4493 2043 4497 2313 4500 L 2805 4505 L 2811 4710 C 2814 4823 2818 4972 2819 5043 L 2820 5170 L 3035 5170 L 3250 5170 L 3251 5033 C 3252 4957 3256 4801 3259 4685 L 3265 4475 L 3625 4473 C 3823 4471 4050 4473 4130 4478 L 4275 4485 L 4275 4815 C 4275 4997 4276 5153 4278 5163 C 4280 5178 4297 5180 4470 5180 L 4660 5180 L 4661 5128 Z M 4721 5063 C 4722 4998 4725 4862 4729 4760 L 4735 4575 L 4955 4569 C 5076 4565 5219 4562 5273 4561 C 5326 4561 5370 4556 5370 4551 C 5370 4538 5269 4531 4963 4524 L 4700 4518 L 4700 4751 C 4700 4880 4697 5029 4693 5083 C 4688 5169 4689 5180 4703 5180 C 4718 5180 4720 5165 4721 5063 Z M 2720 4890 C 2720 4736 2719 4610 2718 4610 C 2430 4594 2013 4580 1818 4580 C 1602 4580 1560 4578 1560 4566 C 1560 4558 1563 4550 1568 4548 C 1572 4547 1615 4500 1664 4445 C 1713 4390 1778 4318 1809 4285 C 1840 4252 1907 4179 1959 4122 L 2053 4019 L 1989 3962 C 1954 3931 1862 3847 1785 3776 C 1708 3705 1643 3645 1641 3643 C 1639 3642 1684 3592 1742 3533 C 1799 3473 1888 3380 1938 3325 C 1989 3270 2041 3214 2054 3200 C 2066 3186 2128 3119 2190 3051 C 2320 2910 2316 2936 2221 2812 C 2190 2772 2158 2729 2150 2717 C 2142 2704 2107 2657 2073 2612 C 2038 2567 2010 2525 2010 2520 C 2010 2514 2004 2510 1997 2510 C 1984 2510 1948 2556 1850 2700 C 1804 2767 1592 3072 1372 3385 C 1189 3647 967 3964 932 4015 C 891 4074 881 4100 899 4100 C 910 4100 1144 4299 1149 4313 C 1151 4319 1146 4328 1138 4334 C 1131 4340 1113 4361 1099 4380 C 1085 4399 1042 4458 1004 4510 C 966 4562 928 4615 920 4627 C 912 4638 879 4684 848 4729 C 816 4773 790 4812 790 4815 C 790 4818 904 4820 1044 4820 L 1298 4820 L 1314 4845 C 1327 4865 1330 4898 1330 5020 L 1330 5170 L 2025 5170 L 2720 5170 L 2720 4890 Z M 2778 4678 L 2775 4535 L 2470 4528 C 2156 4521 1760 4527 1760 4540 C 1760 4544 1896 4550 2063 4555 C 2229 4559 2453 4565 2560 4569 L 2755 4575 L 2758 4698 C 2759 4770 2765 4820 2771 4820 C 2777 4820 2780 4767 2778 4678 Z M 4005 4390 C 4096 4375 4201 4339 4324 4278 C 4447 4218 4471 4203 4595 4114 C 4650 4075 4713 4033 4735 4022 C 4799 3990 4935 3961 5070 3950 C 5212 3939 5271 3922 5316 3879 C 5359 3837 5369 3772 5339 3724 C 5328 3705 5309 3688 5297 3685 C 5249 3675 4792 3675 4783 3685 C 4778 3691 4771 3707 4768 3720 C 4765 3734 4759 3753 4755 3763 C 4748 3779 4752 3780 4791 3774 C 4815 3770 4844 3764 4855 3760 C 4886 3750 5215 3763 5215 3775 C 5215 3781 5144 3787 5035 3791 C 4936 3794 4831 3802 4801 3809 C 4762 3817 4743 3817 4734 3809 C 4724 3801 4707 3805 4666 3824 C 4636 3838 4607 3850 4603 3850 C 4594 3850 4522 3905 4419 3989 C 4389 4013 4362 4041 4358 4051 C 4354 4062 4346 4070 4340 4070 C 4334 4070 4314 4084 4295 4101 C 4206 4182 4044 4251 3893 4271 C 3801 4283 3553 4276 3521 4261 C 3490 4245 3397 4207 3339 4186 C 3270 4161 3184 4097 3066 3982 C 3008 3925 2960 3877 2960 3874 C 2960 3859 2990 3878 3058 3938 C 3101 3975 3143 4010 3152 4015 C 3160 4021 3195 4044 3228 4068 C 3311 4126 3334 4133 3354 4111 C 3374 4089 3374 4080 3354 4080 C 3315 4080 3163 3963 3010 3816 C 2808 3621 2787 3610 2631 3610 C 2560 3610 2520 3614 2520 3620 C 2520 3626 2509 3641 2495 3654 L 2470 3677 L 2547 3684 C 2589 3687 2639 3690 2659 3690 C 2699 3690 2812 3731 2850 3760 C 2879 3782 2869 3800 2838 3781 C 2799 3757 2717 3738 2615 3731 C 2472 3721 2442 3725 2438 3759 L 2435 3785 L 2306 3785 C 2212 3785 2175 3781 2172 3772 C 2166 3754 2150 3758 2150 3778 C 2150 3810 2189 3859 2227 3876 C 2263 3891 2323 3903 2430 3915 C 2494 3923 2659 3958 2700 3972 C 2752 3991 2892 4076 2942 4118 C 3002 4171 3109 4239 3210 4290 C 3297 4334 3324 4343 3422 4363 C 3453 4370 3482 4378 3486 4383 C 3490 4387 3509 4390 3529 4391 C 3549 4392 3576 4396 3590 4401 C 3622 4412 3914 4404 4005 4390 Z M 5596 4194 C 5624 4205 5608 4179 5510 4056 C 5455 3987 5413 3925 5416 3918 C 5419 3911 5442 3888 5468 3867 C 5494 3847 5565 3783 5625 3725 C 5733 3623 5735 3620 5720 3596 C 5704 3570 5477 3321 5313 3150 C 5284 3120 5230 3063 5192 3023 C 5154 2983 5120 2953 5117 2957 C 5112 2961 5249 3132 5280 3160 C 5283 3163 5350 3239 5429 3330 C 5508 3421 5598 3521 5629 3553 L 5685 3611 L 5615 3673 C 5503 3773 5335 3933 5335 3941 C 5335 3945 5378 3997 5430 4056 C 5482 4115 5536 4177 5550 4192 C 5570 4215 5576 4217 5578 4205 C 5580 4195 5588 4191 5596 4194 Z M 3840 4086 C 3860 4082 3907 4065 3946 4046 C 4029 4006 4084 3949 4131 3852 C 4149 3815 4167 3777 4172 3766 C 4178 3756 4184 3723 4187 3694 C 4194 3633 4179 3621 4160 3673 C 4154 3690 4144 3713 4139 3722 C 4134 3732 4130 3747 4130 3755 C 4130 3782 4089 3853 4042 3908 C 4010 3946 3977 3971 3928 3995 C 3845 4036 3800 4047 3800 4028 C 3800 4021 3830 4004 3867 3991 C 3972 3953 4051 3863 4085 3742 C 4102 3683 4102 3680 4083 3644 C 4058 3595 4045 3592 4025 3629 C 3998 3681 3976 3664 3966 3583 C 3950 3454 3880 3384 3740 3355 C 3704 3348 3685 3339 3685 3330 C 3685 3313 3741 3310 3774 3325 C 3791 3332 3792 3330 3786 3306 C 3782 3289 3784 3272 3791 3263 C 3801 3251 3801 3247 3790 3240 C 3766 3225 3642 3208 3610 3215 C 3568 3224 3569 3196 3611 3181 C 3649 3168 3757 3166 3764 3179 C 3767 3183 3794 3190 3825 3194 C 3884 3201 3977 3245 4022 3287 C 4040 3305 4054 3310 4069 3305 C 4081 3302 4090 3295 4090 3290 C 4090 3276 3976 3179 3933 3157 C 3912 3146 3886 3133 3875 3127 C 3865 3122 3794 3115 3718 3112 L 3581 3107 L 3508 3144 C 3382 3207 3359 3225 3310 3295 C 3225 3418 3205 3478 3205 3610 C 3206 3729 3215 3764 3273 3864 C 3325 3954 3376 4001 3477 4051 C 3550 4087 3569 4092 3662 4098 C 3719 4102 3774 4102 3785 4098 C 3796 4095 3821 4089 3840 4086 Z M 5510 3735 C 5571 3677 5625 3630 5630 3630 C 5636 3630 5640 3623 5640 3615 C 5640 3600 5615 3570 5425 3365 C 5369 3305 5257 3183 5175 3095 C 5094 3007 5019 2928 5009 2918 C 4983 2896 4985 2888 5023 2841 C 5066 2788 5122 2711 5135 2689 C 5140 2680 5166 2642 5193 2605 C 5219 2569 5240 2538 5240 2536 C 5240 2532 5210 2531 4940 2521 C 4811 2516 4642 2509 4564 2505 L 4423 2497 L 4321 2384 C 4265 2321 4215 2270 4211 2270 C 4197 2270 4190 2340 4190 2490 C 4190 2620 4182 2706 4165 2766 C 4159 2784 4171 2792 4252 2832 C 4357 2884 4391 2882 4300 2830 C 4292 2825 4288 2819 4292 2815 C 4310 2796 4462 2900 4601 3026 C 4783 3192 4819 3208 5088 3250 C 5127 3257 5160 3266 5160 3271 C 5160 3276 5131 3280 5095 3280 C 4991 3280 5020 3296 5136 3304 C 5232 3310 5247 3314 5285 3340 C 5347 3382 5370 3425 5370 3495 C 5370 3538 5363 3564 5343 3601 L 5317 3650 L 5351 3686 C 5382 3718 5385 3726 5385 3781 C 5384 3813 5387 3840 5391 3840 C 5395 3840 5448 3793 5510 3735 Z M 5297 3613 C 5340 3557 5346 3470 5309 3413 C 5290 3382 5221 3361 5116 3353 C 5027 3347 5027 3347 5033 3369 C 5037 3387 5032 3395 5009 3408 C 4993 3418 4980 3428 4980 3433 C 4980 3437 5026 3440 5083 3440 C 5188 3441 5220 3451 5220 3483 C 5220 3492 5208 3499 5188 3501 C 5129 3508 4835 3493 4815 3482 C 4804 3477 4777 3464 4755 3454 C 4730 3442 4648 3367 4539 3258 C 4354 3071 4326 3048 4244 3012 C 4067 2937 3903 2900 3745 2900 C 3518 2900 3298 2965 3121 3084 C 3058 3127 3039 3122 3091 3077 C 3146 3029 3273 2966 3380 2932 C 3675 2838 3641 2845 3815 2845 C 3989 2845 4034 2854 4158 2911 C 4193 2927 4223 2940 4226 2940 C 4229 2940 4245 2950 4262 2961 C 4288 2980 4295 2981 4316 2970 C 4348 2952 4346 2944 4303 2917 C 4183 2841 4061 2796 3943 2784 C 3911 2781 3873 2774 3858 2768 C 3828 2757 3489 2784 3459 2800 C 3450 2805 3422 2811 3397 2815 C 3335 2825 3106 2943 3021 3010 C 2982 3040 2950 3068 2950 3073 C 2950 3077 2961 3085 2975 3090 C 2998 3099 3000 3104 2995 3137 C 2990 3167 2973 3190 2916 3245 C 2830 3329 2738 3380 2655 3392 C 2622 3397 2507 3404 2400 3408 C 2234 3414 2201 3418 2178 3434 C 2144 3456 2143 3485 2173 3522 L 2195 3548 L 2450 3560 L 2705 3571 L 2759 3543 C 2795 3524 2842 3483 2902 3418 C 3032 3278 3124 3218 3378 3109 C 3407 3096 3469 3087 3576 3079 C 3958 3050 4153 3123 4396 3387 C 4540 3543 4554 3555 4619 3595 L 4675 3628 L 4979 3629 C 5257 3630 5284 3629 5297 3613 Z M 2201 3254 C 2235 3218 2266 3203 2330 3196 C 2526 3172 2585 3149 2730 3039 C 2851 2948 2992 2854 3040 2832 C 3170 2773 3205 2760 3231 2760 C 3255 2760 3260 2764 3260 2785 C 3260 2800 3266 2810 3274 2810 C 3293 2810 3304 2793 3290 2785 C 3285 2782 3269 2757 3255 2729 C 3229 2676 3218 2605 3205 2400 C 3201 2342 3196 2292 3194 2288 C 3192 2285 3164 2309 3132 2342 C 3101 2376 3044 2434 3005 2472 L 2935 2541 L 2735 2535 C 2625 2533 2453 2528 2353 2525 C 2252 2522 2170 2522 2170 2525 C 2170 2531 2235 2617 2340 2751 C 2365 2782 2398 2825 2415 2846 C 2431 2868 2453 2891 2462 2898 C 2472 2905 2480 2915 2480 2919 C 2480 2924 2454 2954 2423 2987 C 2328 3084 2160 3268 2160 3274 C 2160 3287 2178 3278 2201 3254 Z M 5793 2902 C 5796 2898 5731 2803 5648 2690 C 5365 2302 5162 2018 5109 1935 C 5099 1919 5088 1905 5085 1905 C 5082 1905 5078 1970 5077 2050 L 5075 2195 L 5031 2260 C 5007 2296 4969 2344 4947 2368 L 4906 2410 L 5030 2412 C 5099 2413 5187 2413 5226 2411 C 5270 2409 5300 2413 5304 2419 C 5308 2425 5336 2430 5366 2430 C 5396 2430 5420 2432 5420 2435 C 5420 2438 5411 2453 5401 2468 C 5318 2586 5128 2881 5132 2886 C 5134 2887 5277 2891 5450 2895 C 5623 2898 5767 2903 5769 2906 C 5776 2912 5788 2911 5793 2902 Z M 3468 2744 C 3481 2735 3498 2714 3505 2696 C 3530 2637 3526 2280 3500 2280 C 3496 2280 3494 2337 3497 2408 C 3503 2561 3492 2643 3467 2648 C 3452 2651 3450 2643 3450 2586 C 3450 2549 3446 2520 3440 2520 C 3435 2520 3430 2541 3430 2566 C 3430 2604 3427 2611 3413 2608 C 3401 2606 3394 2594 3392 2575 C 3384 2482 3357 2313 3348 2302 C 3340 2293 3342 2285 3354 2272 C 3380 2243 3375 2227 3343 2235 C 3327 2239 3299 2246 3280 2249 C 3253 2254 3246 2260 3248 2275 C 3250 2286 3255 2374 3259 2470 C 3269 2691 3282 2731 3353 2757 C 3390 2771 3434 2766 3468 2744 Z M 4134 2727 C 4153 2701 4155 2683 4159 2507 C 4161 2401 4166 2307 4172 2297 C 4184 2273 4166 2250 4133 2250 C 4077 2250 3969 2164 3949 2102 C 3943 2082 3934 2072 3929 2077 C 3893 2113 3846 2541 3869 2626 C 3890 2704 3912 2727 3982 2744 C 4072 2765 4108 2761 4134 2727 Z M 3859 2724 C 3861 2722 3857 2713 3849 2704 C 3838 2690 3835 2642 3836 2471 C 3837 2246 3858 2054 3883 2038 C 3892 2032 3892 2028 3881 2021 C 3870 2014 3870 2006 3880 1976 C 3891 1941 3890 1938 3858 1902 C 3840 1882 3799 1840 3767 1810 L 3708 1755 L 3619 1850 C 3535 1941 3519 1964 3539 1972 C 3544 1974 3557 2040 3568 2120 C 3599 2344 3602 2370 3590 2370 C 3584 2370 3580 2410 3580 2478 C 3579 2573 3565 2675 3546 2720 C 3540 2734 3558 2735 3697 2732 C 3784 2730 3857 2726 3859 2724 Z M 4891 2470 C 4918 2470 4940 2466 4940 2461 C 4940 2456 4856 2453 4748 2454 C 4465 2456 4466 2456 4287 2262 C 4240 2211 4220 2199 4220 2221 C 4220 2227 4268 2285 4326 2351 L 4432 2470 L 4593 2473 C 4682 2475 4775 2475 4799 2473 C 4823 2471 4865 2470 4891 2470 Z M 2991 2332 C 3166 2152 3164 2155 3149 2129 C 3126 2085 3028 1965 2992 1936 C 2926 1883 2859 1816 2845 1786 C 2815 1728 2830 1648 2878 1597 C 2923 1549 2966 1534 3091 1523 C 3140 1519 3154 1522 3206 1550 C 3309 1605 3366 1656 3420 1736 C 3447 1778 3470 1819 3470 1826 C 3470 1834 3473 1840 3477 1840 C 3481 1840 3526 1798 3577 1748 L 3670 1655 L 3670 1448 L 3670 1240 L 3271 1240 L 2873 1240 L 2822 1313 C 2793 1352 2723 1453 2666 1535 C 2608 1618 2533 1725 2498 1773 C 2463 1822 2428 1872 2420 1885 C 2403 1910 2283 2083 2148 2275 C 2099 2343 2060 2401 2060 2403 C 2060 2409 2361 2415 2467 2411 C 2513 2410 2557 2413 2565 2418 C 2574 2422 2652 2427 2739 2428 L 2896 2429 L 2991 2332 Z M 4819 2394 C 4880 2373 4914 2347 4959 2287 C 5042 2174 5056 2114 5033 1960 C 5005 1763 4929 1666 4749 1594 C 4693 1572 4669 1568 4564 1568 C 4447 1567 4440 1569 4347 1605 C 4294 1625 4239 1651 4226 1661 C 4213 1671 4198 1680 4192 1680 C 4178 1680 4040 1819 4040 1833 C 4040 1840 4031 1856 4020 1870 C 4005 1890 4002 1905 4007 1940 C 4012 1984 4030 2020 4030 1988 C 4030 1934 4181 1742 4254 1702 C 4291 1682 4358 1660 4383 1660 C 4415 1660 4401 1688 4363 1701 C 4296 1723 4256 1750 4193 1817 C 4135 1877 4090 1938 4045 2016 C 4028 2045 4028 2048 4049 2087 C 4078 2144 4114 2170 4164 2170 C 4205 2170 4207 2168 4235 2113 C 4279 2029 4401 1910 4466 1888 C 4571 1852 4654 1873 4730 1956 C 4802 2034 4815 2089 4779 2164 C 4762 2200 4749 2212 4709 2230 C 4650 2255 4617 2251 4571 2212 C 4550 2194 4537 2173 4533 2148 C 4526 2099 4550 2096 4571 2143 C 4585 2174 4636 2209 4672 2210 C 4691 2210 4750 2164 4750 2148 C 4750 2143 4736 2150 4719 2164 C 4702 2178 4679 2190 4667 2190 C 4648 2189 4650 2185 4683 2159 C 4709 2137 4720 2120 4720 2101 C 4720 2073 4676 2000 4660 2000 C 4654 2000 4650 1993 4650 1985 C 4650 1977 4655 1970 4661 1970 C 4673 1970 4719 2015 4737 2045 C 4748 2064 4749 2064 4749 2042 C 4750 2006 4659 1920 4620 1920 C 4603 1920 4581 1916 4571 1910 C 4544 1896 4454 1932 4418 1972 C 4282 2122 4355 2368 4545 2401 C 4622 2414 4773 2410 4819 2394 Z M 3278 2140 C 3302 2140 3336 2105 3321 2095 C 3315 2092 3310 2080 3310 2070 C 3310 2033 3226 1894 3166 1831 C 3121 1784 3086 1759 3034 1735 C 2995 1717 2952 1688 2937 1671 C 2923 1654 2907 1640 2901 1640 C 2896 1640 2887 1661 2882 1687 C 2866 1761 2888 1799 3004 1890 C 3057 1932 3198 2103 3213 2143 C 3218 2157 3224 2159 3239 2150 C 3250 2145 3267 2140 3278 2140 Z M 4045 1664 C 4133 1580 4230 1525 4327 1505 C 4408 1488 4430 1487 4430 1500 C 4430 1506 4420 1510 4408 1510 C 4372 1511 4277 1545 4272 1560 C 4267 1574 4287 1571 4345 1552 C 4447 1517 4551 1512 4660 1534 C 4732 1550 4810 1576 4825 1591 C 4837 1603 4860 1603 4860 1591 C 4860 1585 4823 1532 4778 1471 C 4732 1410 4677 1336 4655 1305 L 4616 1250 L 4199 1250 L 3782 1250 L 3775 1456 L 3768 1663 L 3850 1743 L 3932 1823 L 3951 1779 C 3963 1754 4002 1706 4045 1664 Z M 4570 1176 C 4570 1170 4353 869 4298 800 C 4274 770 4221 698 4180 641 C 4079 501 4077 498 3980 366 C 3933 302 3880 228 3862 202 C 3793 102 3780 84 3755 55 C 3730 27 3728 26 3717 44 C 3710 54 3676 102 3640 151 C 3604 200 3559 262 3540 290 C 3521 318 3492 359 3475 380 C 3459 402 3423 452 3395 491 C 3368 531 3333 578 3318 595 C 3302 613 3290 630 3290 634 C 3290 637 3248 697 3197 767 C 3147 838 3098 905 3090 916 C 3082 928 3056 964 3033 996 C 3010 1029 2977 1074 2961 1098 L 2930 1140 L 3128 1141 C 3236 1141 3575 1150 3880 1159 C 4540 1181 4570 1181 4570 1176 Z"/>
    <path d="M3600 3788 c-95 -58 -146 -163 -119 -247 17 -52 65 -108 112 -132 60 -31 152 -24 209 17 80 56 120 145 98 219 -28 95 -105 163 -194 172 -45 4 -58 1 -106 -29z"/>
    <path d="M3936 2633 c-12 -56 -10 -367 2 -410 7 -24 16 -43 20 -43 4 0 7 108 7 240 0 176 -3 240 -12 240 -6 0 -14 -12 -17 -27z"/>
    <path d="M4837 2303 c-12 -12 -7 -33 7 -33 19 0 84 -76 102 -119 29 -70 16 -211 -29 -297 -21 -41 -121 -133 -157 -145 -31 -11 -41 -29 -16 -29 62 0 235 148 234 200 0 14 8 57 17 95 20 87 15 139 -20 209 -40 78 -115 143 -138 119z"/>
  </g>
</svg>